<?xml version="1.0" encoding="utf-8"?>
<!-- Generator: Adobe Illustrator 25.1.0, SVG Export Plug-In . SVG Version: 6.00 Build 0)  -->
<svg version="1.1" id="DPG" xmlns="http://www.w3.org/2000/svg" xmlns:xlink="http://www.w3.org/1999/xlink" x="0px" y="0px"
	 viewBox="0 0 283.5 52" style="enable-background:new 0 0 283.5 52;" xml:space="preserve">
<style type="text/css">
	.st0{fill:#FFFFFF;}
</style>
<g>
	<path class="st0" d="M272.3,24.4L272.3,24.4l-3.9,0v5.2h3.4v0c0.1,0,0.1,0,0.2,0c3.1,0,5.6,2.5,5.6,5.6c0,3.1-2.5,5.6-5.6,5.6
		c-0.3,0-33.3,0-33.3,0V35l-10.4,8.6l10.4,8.4v-5.9h33.5v0c5.9-0.1,10.6-4.9,10.6-10.8C282.9,29.3,278.2,24.5,272.3,24.4z"/>
	<path class="st0" d="M249,38.4h5.1c1.4,0,2.5-1.1,2.5-2.5V21.3c0-0.6-0.2-1.1-0.5-1.5v-1h-2H249h-2v1c-0.3,0.4-0.5,1-0.5,1.5v14.6
		C246.5,37.3,247.6,38.4,249,38.4z"/>
	<path class="st0" d="M259.2,19.2v16.7h5.3c0.9,0,1.7-0.8,1.7-1.7V14.5c0-6.3-3.4-9.8-3.4-11.9h0.5V0.1h-4.5v2.5h0.5
		c0,2.2-3.4,6-3.4,11.9v2.6h1.1C258.2,17.1,259.2,18,259.2,19.2z"/>
	<path class="st0" d="M3.1,24.2H0v11.6h3c0.9,0,1.7-0.3,2.3-0.9c0.6-0.6,0.9-1.5,0.9-2.6v-4.6c0-1.2-0.3-2.1-0.9-2.6
		C4.8,24.5,4,24.2,3.1,24.2z M5,32.3c0,0.8-0.2,1.4-0.5,1.8c-0.3,0.4-0.8,0.6-1.4,0.6H1.3v-9.4h1.8c0.6,0,1.1,0.2,1.4,0.6
		C4.8,26.4,5,27,5,27.9V32.3z"/>
	<polygon class="st0" points="13.6,34.8 9.6,34.8 9.6,30.5 13,30.5 13,29.4 9.6,29.4 9.6,25.3 13.6,25.3 13.6,24.2 8.4,24.2 
		8.4,35.8 13.6,35.8 	"/>
	<path class="st0" d="M17,35.6c0.5,0.3,1,0.4,1.6,0.4c0.9,0,1.6-0.3,2.2-0.9c0.6-0.6,0.8-1.3,0.8-2.2v-8.6h-1.2v8.6
		c0,0.7-0.2,1.2-0.5,1.5c-0.3,0.4-0.8,0.5-1.3,0.5c-0.6,0-1-0.2-1.3-0.5c-0.3-0.4-0.5-0.9-0.5-1.5v-8.6h-1.2v8.6
		c0,0.6,0.1,1.1,0.4,1.6C16.2,35,16.5,35.3,17,35.6z"/>
	<polygon class="st0" points="26.6,35.8 26.6,25.3 29,25.3 29,24.2 23,24.2 23,25.3 25.4,25.3 25.4,35.8 	"/>
	<path class="st0" d="M33,34.9c-0.6,0-1.1-0.2-1.4-0.5c-0.3-0.3-0.5-0.9-0.5-1.7h-1.2c0,1.1,0.3,1.9,0.8,2.5
		c0.5,0.6,1.3,0.8,2.2,0.8c1,0,1.8-0.3,2.3-0.8c0.5-0.6,0.8-1.3,0.8-2.4c0-0.9-0.2-1.6-0.6-2.1c-0.4-0.5-1-0.9-1.7-1.2L33,29.2
		c-0.6-0.2-1.1-0.5-1.4-0.8c-0.3-0.3-0.4-0.7-0.4-1.3c0-0.6,0.1-1.1,0.4-1.4c0.3-0.3,0.7-0.5,1.3-0.5c1.1,0,1.7,0.7,1.8,2h1.2
		c0-1-0.3-1.8-0.8-2.3c-0.5-0.5-1.2-0.8-2.1-0.8c-0.9,0-1.7,0.3-2.2,0.8c-0.5,0.6-0.8,1.3-0.8,2.3c0,0.8,0.2,1.4,0.6,1.9
		c0.4,0.5,1,0.9,1.7,1.2l0.7,0.3c0.7,0.3,1.2,0.6,1.4,0.9c0.3,0.3,0.4,0.8,0.4,1.4c0,0.7-0.1,1.2-0.4,1.6C34,34.7,33.6,34.9,33,34.9
		z"/>
	<path class="st0" d="M41,36c0.9,0,1.6-0.3,2.2-0.8c0.6-0.6,0.9-1.4,0.9-2.5v-0.2h-1.2v0.2c0,0.8-0.2,1.3-0.5,1.7
		c-0.3,0.4-0.8,0.6-1.4,0.6c-1.3,0-2-0.8-2-2.4v-4.7c0-0.9,0.2-1.5,0.5-1.9c0.3-0.4,0.8-0.6,1.5-0.6c0.6,0,1,0.2,1.4,0.6
		c0.3,0.4,0.5,1,0.5,1.7v0.1h1.2v-0.2c0-1.1-0.3-2-0.9-2.5c-0.6-0.6-1.3-0.8-2.3-0.8c-1,0-1.7,0.3-2.3,0.9c-0.6,0.6-0.9,1.5-0.9,2.6
		v4.8c0,1.2,0.3,2,0.9,2.6C39.3,35.7,40.1,36,41,36z"/>
	<polygon class="st0" points="47.6,30.5 51.1,30.5 51.1,35.8 52.4,35.8 52.4,24.2 51.1,24.2 51.1,29.4 47.6,29.4 47.6,24.2 
		46.3,24.2 46.3,35.8 47.6,35.8 	"/>
	<polygon class="st0" points="59.9,34.8 55.9,34.8 55.9,30.5 59.3,30.5 59.3,29.4 55.9,29.4 55.9,25.3 59.9,25.3 59.9,24.2 
		54.7,24.2 54.7,35.8 59.9,35.8 	"/>
	<path class="st0" d="M67.3,30.9h1.8c2,0,3-1.1,3-3.3c0-1.1-0.2-2-0.7-2.5c-0.5-0.6-1.2-0.8-2.3-0.8h-3v11.6h1.2V30.9z M67.3,25.3
		H69c0.6,0,1.1,0.2,1.4,0.5c0.3,0.4,0.4,0.9,0.4,1.7c0,0.8-0.1,1.4-0.4,1.7c-0.3,0.3-0.8,0.5-1.4,0.5h-1.7V25.3z"/>
	<polygon class="st0" points="75.1,30.5 78.5,30.5 78.5,29.4 75.1,29.4 75.1,25.3 79,25.3 79,24.2 73.8,24.2 73.8,35.8 75.1,35.8 	
		"/>
	<path class="st0" d="M81.4,32.9h3.4l0.7,3h1.3l-3.2-11.6h-1.1l-3.2,11.6h1.3L81.4,32.9z M83.1,26.1l1.4,5.7h-2.9L83.1,26.1z"/>
	<polygon class="st0" points="89.6,26.9 93.6,35.8 94.8,35.8 94.8,24.2 93.6,24.2 93.6,33.2 89.6,24.2 88.4,24.2 88.4,35.8 
		89.6,35.8 	"/>
	<path class="st0" d="M102.4,35c0.6-0.6,0.9-1.5,0.9-2.6v-4.6c0-1.2-0.3-2.1-0.9-2.6c-0.6-0.6-1.3-0.9-2.3-0.9h-3v11.6h3
		C101.1,35.8,101.9,35.6,102.4,35z M98.4,25.3h1.8c0.6,0,1.1,0.2,1.4,0.6c0.3,0.4,0.5,1.1,0.5,1.9v4.5c0,0.8-0.2,1.4-0.5,1.8
		c-0.3,0.4-0.8,0.6-1.4,0.6h-1.8V25.3z"/>
	<path class="st0" d="M108,34.9c-0.6,0-1.1-0.2-1.4-0.5c-0.3-0.3-0.5-0.9-0.5-1.7h-1.2c0,1.1,0.3,1.9,0.8,2.5
		c0.5,0.6,1.3,0.8,2.2,0.8c1,0,1.8-0.3,2.3-0.8c0.5-0.6,0.8-1.3,0.8-2.4c0-0.9-0.2-1.6-0.6-2.1c-0.4-0.5-1-0.9-1.7-1.2l-0.7-0.3
		c-0.6-0.2-1.1-0.5-1.4-0.8c-0.3-0.3-0.4-0.7-0.4-1.3c0-0.6,0.1-1.1,0.4-1.4c0.3-0.3,0.7-0.5,1.3-0.5c1.1,0,1.7,0.7,1.8,2h1.2
		c0-1-0.3-1.8-0.8-2.3c-0.5-0.5-1.2-0.8-2.1-0.8c-0.9,0-1.7,0.3-2.2,0.8c-0.5,0.6-0.8,1.3-0.8,2.3c0,0.8,0.2,1.4,0.6,1.9
		c0.4,0.5,1,0.9,1.7,1.2l0.7,0.3c0.7,0.3,1.2,0.6,1.4,0.9c0.3,0.3,0.4,0.8,0.4,1.4c0,0.7-0.1,1.2-0.4,1.6
		C109.1,34.7,108.6,34.9,108,34.9z"/>
	<polygon class="st0" points="114.5,35.8 115.7,35.8 115.7,31 118.3,24.2 116.9,24.2 115.1,29.6 113.3,24.2 112,24.2 114.5,31 	"/>
	<path class="st0" d="M122.3,34.9c-0.6,0-1.1-0.2-1.4-0.5c-0.3-0.3-0.5-0.9-0.5-1.7h-1.2c0,1.1,0.3,1.9,0.8,2.5
		c0.5,0.6,1.3,0.8,2.2,0.8c1,0,1.8-0.3,2.3-0.8c0.5-0.6,0.8-1.3,0.8-2.4c0-0.9-0.2-1.6-0.6-2.1c-0.4-0.5-1-0.9-1.7-1.2l-0.7-0.3
		c-0.6-0.2-1.1-0.5-1.4-0.8c-0.3-0.3-0.4-0.7-0.4-1.3c0-0.6,0.1-1.1,0.4-1.4c0.3-0.3,0.7-0.5,1.3-0.5c1.1,0,1.7,0.7,1.8,2h1.2
		c0-1-0.3-1.8-0.8-2.3c-0.5-0.5-1.2-0.8-2.1-0.8c-0.9,0-1.7,0.3-2.2,0.8c-0.5,0.6-0.8,1.3-0.8,2.3c0,0.8,0.2,1.4,0.6,1.9
		c0.4,0.5,1,0.9,1.7,1.2l0.7,0.3c0.7,0.3,1.2,0.6,1.4,0.9c0.3,0.3,0.4,0.8,0.4,1.4c0,0.7-0.1,1.2-0.4,1.6
		C123.4,34.7,122.9,34.9,122.3,34.9z"/>
	<polygon class="st0" points="128.8,35.8 130,35.8 130,25.3 132.4,25.3 132.4,24.2 126.4,24.2 126.4,25.3 128.8,25.3 	"/>
	<polygon class="st0" points="139,34.8 135,34.8 135,30.5 138.4,30.5 138.4,29.4 135,29.4 135,25.3 139,25.3 139,24.2 133.8,24.2 
		133.8,35.8 139,35.8 	"/>
	<polygon class="st0" points="142.2,27 144.5,33.2 145.4,33.2 147.7,26.9 147.7,35.8 149,35.8 149,24.2 147.7,24.2 145,31.4 
		142.2,24.2 140.9,24.2 140.9,35.8 142.2,35.8 	"/>
	<path class="st0" d="M158.6,36c0.9,0,1.7-0.3,2.3-0.9c0.6-0.6,0.9-1.5,0.9-2.6v-2.6h-3.1v1h1.9v1.6c0,0.8-0.2,1.4-0.5,1.8
		c-0.3,0.4-0.8,0.6-1.4,0.6c-1.3,0-1.9-0.8-1.9-2.4v-4.7c0-1.7,0.6-2.5,1.9-2.5c0.6,0,1,0.2,1.4,0.5c0.3,0.4,0.5,0.9,0.5,1.6v0.2
		h1.2v-0.2c0-1-0.3-1.8-0.9-2.4c-0.6-0.6-1.3-0.8-2.3-0.8c-1,0-1.7,0.3-2.3,0.9c-0.6,0.6-0.9,1.5-0.9,2.6v4.8c0,1.2,0.3,2,0.9,2.6
		C156.9,35.7,157.7,36,158.6,36z"/>
	<polygon class="st0" points="165.2,27 167.6,33.2 168.4,33.2 170.8,26.9 170.8,35.8 172,35.8 172,24.2 170.8,24.2 168,31.4 
		165.2,24.2 164,24.2 164,35.8 165.2,35.8 	"/>
	<path class="st0" d="M179.7,35c0.5-0.5,0.7-1.3,0.7-2.4c0-1.6-0.5-2.5-1.6-2.8c1-0.4,1.5-1.2,1.5-2.6c0-1-0.2-1.8-0.7-2.3
		c-0.5-0.5-1.2-0.7-2.2-0.7h-3v11.6h3C178.4,35.8,179.2,35.6,179.7,35z M175.6,25.3h1.6c0.6,0,1.1,0.2,1.4,0.5
		c0.3,0.3,0.4,0.8,0.4,1.5c0,1.3-0.6,2-1.8,2h-1.6V25.3z M175.6,34.8v-4.4h1.6c1.3,0,1.9,0.7,1.9,2.2c0,0.7-0.2,1.3-0.5,1.6
		c-0.3,0.4-0.8,0.5-1.5,0.5H175.6z"/>
	<polygon class="st0" points="184,30.5 187.6,30.5 187.6,35.8 188.8,35.8 188.8,24.2 187.6,24.2 187.6,29.4 184,29.4 184,24.2 
		182.8,24.2 182.8,35.8 184,35.8 	"/>
	<polygon class="st0" points="0,40.9 0,46.1 227.3,46.1 224.3,43.6 227.6,40.9 	"/>
	<path class="st0" d="M5.8,17.9c0.7-0.6,1-1.5,1-2.6V10c0-1.2-0.3-2-0.9-2.6C5.3,6.8,4.4,6.5,3.4,6.5H0v12.3h3.3
		C4.3,18.8,5.2,18.5,5.8,17.9z M2.2,8.5h1.2c0.4,0,0.7,0.2,1,0.5c0.2,0.3,0.3,0.8,0.3,1.4V15c0,0.6-0.1,1-0.3,1.3
		c-0.2,0.3-0.5,0.5-1,0.5H2.2V8.5z"/>
	<path class="st0" d="M10.9,14.2H12c1.2,0,2-0.3,2.6-1c0.5-0.6,0.8-1.6,0.8-2.9c0-1.3-0.3-2.3-0.8-2.9c-0.5-0.6-1.4-1-2.6-1H8.7
		v12.3h2.2V14.2z M10.9,8.4H12c0.5,0,0.8,0.2,1,0.5c0.2,0.3,0.3,0.8,0.3,1.4c0,0.7-0.1,1.1-0.3,1.4c-0.2,0.3-0.5,0.5-1,0.5h-1.1V8.4
		z"/>
	<path class="st0" d="M20.3,18.9c1,0,1.9-0.3,2.6-0.9c0.7-0.6,1-1.5,1-2.6v-3.2h-3.5v1.7h1.3v1.3c0,0.5-0.1,1-0.3,1.3
		c-0.2,0.3-0.5,0.4-1,0.4c-0.9,0-1.3-0.6-1.3-1.8v-4.9c0-0.6,0.1-1.1,0.3-1.4s0.5-0.5,1-0.5c0.4,0,0.7,0.1,0.9,0.4
		c0.2,0.3,0.4,0.6,0.4,1.1v0.4h2.2V9.8c0-1.1-0.3-2-0.9-2.6c-0.6-0.6-1.5-0.9-2.5-0.9c-1.1,0-1.9,0.3-2.6,0.9c-0.7,0.6-1,1.5-1,2.6
		v5.5c0,1.1,0.3,2,0.9,2.6C18.4,18.6,19.2,18.9,20.3,18.9z"/>
</g>
</svg>
